<?xml version="1.0" encoding="utf-8" standalone="no"?>
<!DOCTYPE svg PUBLIC "-//W3C//DTD SVG 1.1//EN"
  "http://www.w3.org/Graphics/SVG/1.1/DTD/svg11.dtd">
<!-- Created with matplotlib (https://matplotlib.org/) -->
<svg height="648pt" version="1.1" viewBox="0 0 1080 648" width="1080pt" xmlns="http://www.w3.org/2000/svg" xmlns:xlink="http://www.w3.org/1999/xlink">
 <metadata>
  <rdf:RDF xmlns:cc="http://creativecommons.org/ns#" xmlns:dc="http://purl.org/dc/elements/1.1/" xmlns:rdf="http://www.w3.org/1999/02/22-rdf-syntax-ns#">
   <cc:Work>
    <dc:type rdf:resource="http://purl.org/dc/dcmitype/StillImage"/>
    <dc:date>2021-04-05T16:24:20.847066</dc:date>
    <dc:format>image/svg+xml</dc:format>
    <dc:creator>
     <cc:Agent>
      <dc:title>Matplotlib v3.3.2, https://matplotlib.org/</dc:title>
     </cc:Agent>
    </dc:creator>
   </cc:Work>
  </rdf:RDF>
 </metadata>
 <defs>
  <style type="text/css">*{stroke-linecap:butt;stroke-linejoin:round;}</style>
 </defs>
 <g id="figure_1">
  <g id="patch_1">
   <path d="M 0 648 
L 1080 648 
L 1080 0 
L 0 0 
z
" style="fill:none;"/>
  </g>
  <g id="axes_1">
   <g id="patch_2">
    <path d="M 135 567 
L 972 567 
L 972 77.76 
L 135 77.76 
z
" style="fill:#ffffff;"/>
   </g>
   <g id="patch_3">
    <path clip-path="url(#p8cabea3c1e)" d="M 137.325 567 
L 155.925 567 
L 155.925 513.749388 
L 137.325 513.749388 
z
" style="fill:#f4f9f2;"/>
   </g>
   <g id="patch_4">
    <path clip-path="url(#p8cabea3c1e)" d="M 160.575 567 
L 179.175 567 
L 179.175 101.057143 
L 160.575 101.057143 
z
" style="fill:#f0f8ee;"/>
   </g>
   <g id="patch_5">
    <path clip-path="url(#p8cabea3c1e)" d="M 183.825 567 
L 202.425 567 
L 202.425 234.183673 
L 183.825 234.183673 
z
" style="fill:#edf6ea;"/>
   </g>
   <g id="patch_6">
    <path clip-path="url(#p8cabea3c1e)" d="M 207.075 567 
L 225.675 567 
L 225.675 540.374694 
L 207.075 540.374694 
z
" style="fill:#e9f4e6;"/>
   </g>
   <g id="patch_7">
    <path clip-path="url(#p8cabea3c1e)" d="M 230.325 567 
L 248.925 567 
L 248.925 500.436735 
L 230.325 500.436735 
z
" style="fill:#e5f1e1;"/>
   </g>
   <g id="patch_8">
    <path clip-path="url(#p8cabea3c1e)" d="M 253.575 567 
L 272.175 567 
L 272.175 247.496327 
L 253.575 247.496327 
z
" style="fill:#deeeda;"/>
   </g>
   <g id="patch_9">
    <path clip-path="url(#p8cabea3c1e)" d="M 276.825 567 
L 295.425 567 
L 295.425 407.248163 
L 276.825 407.248163 
z
" style="fill:#d8ebd4;"/>
   </g>
   <g id="patch_10">
    <path clip-path="url(#p8cabea3c1e)" d="M 300.075 567 
L 318.675 567 
L 318.675 553.687347 
L 300.075 553.687347 
z
" style="fill:#d2e8cd;"/>
   </g>
   <g id="patch_11">
    <path clip-path="url(#p8cabea3c1e)" d="M 323.325 567 
L 341.925 567 
L 341.925 500.436735 
L 323.325 500.436735 
z
" style="fill:#cce5c7;"/>
   </g>
   <g id="patch_12">
    <path clip-path="url(#p8cabea3c1e)" d="M 346.575 567 
L 365.175 567 
L 365.175 447.186122 
L 346.575 447.186122 
z
" style="fill:#c5e1bf;"/>
   </g>
   <g id="patch_13">
    <path clip-path="url(#p8cabea3c1e)" d="M 369.825 567 
L 388.425 567 
L 388.425 553.687347 
L 369.825 553.687347 
z
" style="fill:#bdddb8;"/>
   </g>
   <g id="patch_14">
    <path clip-path="url(#p8cabea3c1e)" d="M 393.075 567 
L 411.675 567 
L 411.675 553.687347 
L 393.075 553.687347 
z
" style="fill:#b5d9b0;"/>
   </g>
   <g id="patch_15">
    <path clip-path="url(#p8cabea3c1e)" d="M 416.325 567 
L 434.925 567 
L 434.925 487.124082 
L 416.325 487.124082 
z
" style="fill:#afd5aa;"/>
   </g>
   <g id="patch_16">
    <path clip-path="url(#p8cabea3c1e)" d="M 439.575 567 
L 458.175 567 
L 458.175 553.687347 
L 439.575 553.687347 
z
" style="fill:#a7d1a2;"/>
   </g>
   <g id="patch_17">
    <path clip-path="url(#p8cabea3c1e)" d="M 462.825 567 
L 481.425 567 
L 481.425 540.374694 
L 462.825 540.374694 
z
" style="fill:#9ecc9b;"/>
   </g>
   <g id="patch_18">
    <path clip-path="url(#p8cabea3c1e)" d="M 486.075 567 
L 504.675 567 
L 504.675 553.687347 
L 486.075 553.687347 
z
" style="fill:#95c793;"/>
   </g>
   <g id="patch_19">
    <path clip-path="url(#p8cabea3c1e)" d="M 509.325 567 
L 527.925 567 
L 527.925 447.186122 
L 509.325 447.186122 
z
" style="fill:#8cc28b;"/>
   </g>
   <g id="patch_20">
    <path clip-path="url(#p8cabea3c1e)" d="M 532.575 567 
L 551.175 567 
L 551.175 553.687347 
L 532.575 553.687347 
z
" style="fill:#83bd83;"/>
   </g>
   <g id="patch_21">
    <path clip-path="url(#p8cabea3c1e)" d="M 555.825 567 
L 574.425 567 
L 574.425 553.687347 
L 555.825 553.687347 
z
" style="fill:#79b77c;"/>
   </g>
   <g id="patch_22">
    <path clip-path="url(#p8cabea3c1e)" d="M 579.075 567 
L 597.675 567 
L 597.675 553.687347 
L 579.075 553.687347 
z
" style="fill:#6eb176;"/>
   </g>
   <g id="patch_23">
    <path clip-path="url(#p8cabea3c1e)" d="M 602.325 567 
L 620.925 567 
L 620.925 553.687347 
L 602.325 553.687347 
z
" style="fill:#64aa70;"/>
   </g>
   <g id="patch_24">
    <path clip-path="url(#p8cabea3c1e)" d="M 625.575 567 
L 644.175 567 
L 644.175 553.687347 
L 625.575 553.687347 
z
" style="fill:#59a46a;"/>
   </g>
   <g id="patch_25">
    <path clip-path="url(#p8cabea3c1e)" d="M 648.825 567 
L 667.425 567 
L 667.425 553.687347 
L 648.825 553.687347 
z
" style="fill:#4f9e64;"/>
   </g>
   <g id="patch_26">
    <path clip-path="url(#p8cabea3c1e)" d="M 672.075 567 
L 690.675 567 
L 690.675 553.687347 
L 672.075 553.687347 
z
" style="fill:#48975e;"/>
   </g>
   <g id="patch_27">
    <path clip-path="url(#p8cabea3c1e)" d="M 695.325 567 
L 713.925 567 
L 713.925 553.687347 
L 695.325 553.687347 
z
" style="fill:#429159;"/>
   </g>
   <g id="patch_28">
    <path clip-path="url(#p8cabea3c1e)" d="M 718.575 567 
L 737.175 567 
L 737.175 553.687347 
L 718.575 553.687347 
z
" style="fill:#3c8a53;"/>
   </g>
   <g id="patch_29">
    <path clip-path="url(#p8cabea3c1e)" d="M 741.825 567 
L 760.425 567 
L 760.425 553.687347 
L 741.825 553.687347 
z
" style="fill:#35834e;"/>
   </g>
   <g id="patch_30">
    <path clip-path="url(#p8cabea3c1e)" d="M 765.075 567 
L 783.675 567 
L 783.675 553.687347 
L 765.075 553.687347 
z
" style="fill:#2e7c48;"/>
   </g>
   <g id="patch_31">
    <path clip-path="url(#p8cabea3c1e)" d="M 788.325 567 
L 806.925 567 
L 806.925 540.374694 
L 788.325 540.374694 
z
" style="fill:#277642;"/>
   </g>
   <g id="patch_32">
    <path clip-path="url(#p8cabea3c1e)" d="M 811.575 567 
L 830.175 567 
L 830.175 553.687347 
L 811.575 553.687347 
z
" style="fill:#1f6f3c;"/>
   </g>
   <g id="patch_33">
    <path clip-path="url(#p8cabea3c1e)" d="M 834.825 567 
L 853.425 567 
L 853.425 553.687347 
L 834.825 553.687347 
z
" style="fill:#176836;"/>
   </g>
   <g id="patch_34">
    <path clip-path="url(#p8cabea3c1e)" d="M 858.075 567 
L 876.675 567 
L 876.675 553.687347 
L 858.075 553.687347 
z
" style="fill:#106130;"/>
   </g>
   <g id="patch_35">
    <path clip-path="url(#p8cabea3c1e)" d="M 881.325 567 
L 899.925 567 
L 899.925 540.374694 
L 881.325 540.374694 
z
" style="fill:#0d5a2c;"/>
   </g>
   <g id="patch_36">
    <path clip-path="url(#p8cabea3c1e)" d="M 904.575 567 
L 923.175 567 
L 923.175 553.687347 
L 904.575 553.687347 
z
" style="fill:#0c5228;"/>
   </g>
   <g id="patch_37">
    <path clip-path="url(#p8cabea3c1e)" d="M 927.825 567 
L 946.425 567 
L 946.425 553.687347 
L 927.825 553.687347 
z
" style="fill:#0b4a24;"/>
   </g>
   <g id="patch_38">
    <path clip-path="url(#p8cabea3c1e)" d="M 951.075 567 
L 969.675 567 
L 969.675 553.687347 
L 951.075 553.687347 
z
" style="fill:#094220;"/>
   </g>
   <g id="matplotlib.axis_1">
    <g id="xtick_1">
     <g id="line2d_1">
      <defs>
       <path d="M 0 0 
L 0 3.5 
" id="m6f0ed69a75" style="stroke:#000000;stroke-width:0.8;"/>
      </defs>
      <g>
       <use style="stroke:#000000;stroke-width:0.8;" x="146.625" xlink:href="#m6f0ed69a75" y="567"/>
      </g>
     </g>
     <g id="text_1">
      <!-- UNITED KINGDOM -->
      <g transform="translate(116.75913 643.006993)rotate(-45)scale(0.1 -0.1)">
       <defs>
        <path d="M 8.6875 72.90625 
L 18.609375 72.90625 
L 18.609375 28.609375 
Q 18.609375 16.890625 22.84375 11.734375 
Q 27.09375 6.59375 36.625 6.59375 
Q 46.09375 6.59375 50.34375 11.734375 
Q 54.59375 16.890625 54.59375 28.609375 
L 54.59375 72.90625 
L 64.5 72.90625 
L 64.5 27.390625 
Q 64.5 13.140625 57.4375 5.859375 
Q 50.390625 -1.421875 36.625 -1.421875 
Q 22.796875 -1.421875 15.734375 5.859375 
Q 8.6875 13.140625 8.6875 27.390625 
z
" id="DejaVuSans-85"/>
        <path d="M 9.8125 72.90625 
L 23.09375 72.90625 
L 55.421875 11.921875 
L 55.421875 72.90625 
L 64.984375 72.90625 
L 64.984375 0 
L 51.703125 0 
L 19.390625 60.984375 
L 19.390625 0 
L 9.8125 0 
z
" id="DejaVuSans-78"/>
        <path d="M 9.8125 72.90625 
L 19.671875 72.90625 
L 19.671875 0 
L 9.8125 0 
z
" id="DejaVuSans-73"/>
        <path d="M -0.296875 72.90625 
L 61.375 72.90625 
L 61.375 64.59375 
L 35.5 64.59375 
L 35.5 0 
L 25.59375 0 
L 25.59375 64.59375 
L -0.296875 64.59375 
z
" id="DejaVuSans-84"/>
        <path d="M 9.8125 72.90625 
L 55.90625 72.90625 
L 55.90625 64.59375 
L 19.671875 64.59375 
L 19.671875 43.015625 
L 54.390625 43.015625 
L 54.390625 34.71875 
L 19.671875 34.71875 
L 19.671875 8.296875 
L 56.78125 8.296875 
L 56.78125 0 
L 9.8125 0 
z
" id="DejaVuSans-69"/>
        <path d="M 19.671875 64.796875 
L 19.671875 8.109375 
L 31.59375 8.109375 
Q 46.6875 8.109375 53.6875 14.9375 
Q 60.6875 21.78125 60.6875 36.53125 
Q 60.6875 51.171875 53.6875 57.984375 
Q 46.6875 64.796875 31.59375 64.796875 
z
M 9.8125 72.90625 
L 30.078125 72.90625 
Q 51.265625 72.90625 61.171875 64.09375 
Q 71.09375 55.28125 71.09375 36.53125 
Q 71.09375 17.671875 61.125 8.828125 
Q 51.171875 0 30.078125 0 
L 9.8125 0 
z
" id="DejaVuSans-68"/>
        <path id="DejaVuSans-32"/>
        <path d="M 9.8125 72.90625 
L 19.671875 72.90625 
L 19.671875 42.09375 
L 52.390625 72.90625 
L 65.09375 72.90625 
L 28.90625 38.921875 
L 67.671875 0 
L 54.6875 0 
L 19.671875 35.109375 
L 19.671875 0 
L 9.8125 0 
z
" id="DejaVuSans-75"/>
        <path d="M 59.515625 10.40625 
L 59.515625 29.984375 
L 43.40625 29.984375 
L 43.40625 38.09375 
L 69.28125 38.09375 
L 69.28125 6.78125 
Q 63.578125 2.734375 56.6875 0.65625 
Q 49.8125 -1.421875 42 -1.421875 
Q 24.90625 -1.421875 15.25 8.5625 
Q 5.609375 18.5625 5.609375 36.375 
Q 5.609375 54.25 15.25 64.234375 
Q 24.90625 74.21875 42 74.21875 
Q 49.125 74.21875 55.546875 72.453125 
Q 61.96875 70.703125 67.390625 67.28125 
L 67.390625 56.78125 
Q 61.921875 61.421875 55.765625 63.765625 
Q 49.609375 66.109375 42.828125 66.109375 
Q 29.4375 66.109375 22.71875 58.640625 
Q 16.015625 51.171875 16.015625 36.375 
Q 16.015625 21.625 22.71875 14.15625 
Q 29.4375 6.6875 42.828125 6.6875 
Q 48.046875 6.6875 52.140625 7.59375 
Q 56.25 8.5 59.515625 10.40625 
z
" id="DejaVuSans-71"/>
        <path d="M 39.40625 66.21875 
Q 28.65625 66.21875 22.328125 58.203125 
Q 16.015625 50.203125 16.015625 36.375 
Q 16.015625 22.609375 22.328125 14.59375 
Q 28.65625 6.59375 39.40625 6.59375 
Q 50.140625 6.59375 56.421875 14.59375 
Q 62.703125 22.609375 62.703125 36.375 
Q 62.703125 50.203125 56.421875 58.203125 
Q 50.140625 66.21875 39.40625 66.21875 
z
M 39.40625 74.21875 
Q 54.734375 74.21875 63.90625 63.9375 
Q 73.09375 53.65625 73.09375 36.375 
Q 73.09375 19.140625 63.90625 8.859375 
Q 54.734375 -1.421875 39.40625 -1.421875 
Q 24.03125 -1.421875 14.8125 8.828125 
Q 5.609375 19.09375 5.609375 36.375 
Q 5.609375 53.65625 14.8125 63.9375 
Q 24.03125 74.21875 39.40625 74.21875 
z
" id="DejaVuSans-79"/>
        <path d="M 9.8125 72.90625 
L 24.515625 72.90625 
L 43.109375 23.296875 
L 61.8125 72.90625 
L 76.515625 72.90625 
L 76.515625 0 
L 66.890625 0 
L 66.890625 64.015625 
L 48.09375 14.015625 
L 38.1875 14.015625 
L 19.390625 64.015625 
L 19.390625 0 
L 9.8125 0 
z
" id="DejaVuSans-77"/>
       </defs>
       <use xlink:href="#DejaVuSans-85"/>
       <use x="73.193359" xlink:href="#DejaVuSans-78"/>
       <use x="147.998047" xlink:href="#DejaVuSans-73"/>
       <use x="177.490234" xlink:href="#DejaVuSans-84"/>
       <use x="238.574219" xlink:href="#DejaVuSans-69"/>
       <use x="301.757812" xlink:href="#DejaVuSans-68"/>
       <use x="378.759766" xlink:href="#DejaVuSans-32"/>
       <use x="410.546875" xlink:href="#DejaVuSans-75"/>
       <use x="476.123047" xlink:href="#DejaVuSans-73"/>
       <use x="505.615234" xlink:href="#DejaVuSans-78"/>
       <use x="580.419922" xlink:href="#DejaVuSans-71"/>
       <use x="657.910156" xlink:href="#DejaVuSans-68"/>
       <use x="734.912109" xlink:href="#DejaVuSans-79"/>
       <use x="813.623047" xlink:href="#DejaVuSans-77"/>
      </g>
     </g>
    </g>
    <g id="xtick_2">
     <g id="line2d_2">
      <g>
       <use style="stroke:#000000;stroke-width:0.8;" x="169.875" xlink:href="#m6f0ed69a75" y="567"/>
      </g>
     </g>
     <g id="text_2">
      <!-- ITALY -->
      <g transform="translate(162.818295 597.388662)rotate(-45)scale(0.1 -0.1)">
       <defs>
        <path d="M 34.1875 63.1875 
L 20.796875 26.90625 
L 47.609375 26.90625 
z
M 28.609375 72.90625 
L 39.796875 72.90625 
L 67.578125 0 
L 57.328125 0 
L 50.6875 18.703125 
L 17.828125 18.703125 
L 11.1875 0 
L 0.78125 0 
z
" id="DejaVuSans-65"/>
        <path d="M 9.8125 72.90625 
L 19.671875 72.90625 
L 19.671875 8.296875 
L 55.171875 8.296875 
L 55.171875 0 
L 9.8125 0 
z
" id="DejaVuSans-76"/>
        <path d="M -0.203125 72.90625 
L 10.40625 72.90625 
L 30.609375 42.921875 
L 50.6875 72.90625 
L 61.28125 72.90625 
L 35.5 34.71875 
L 35.5 0 
L 25.59375 0 
L 25.59375 34.71875 
z
" id="DejaVuSans-89"/>
       </defs>
       <use xlink:href="#DejaVuSans-73"/>
       <use x="29.492188" xlink:href="#DejaVuSans-84"/>
       <use x="82.826172" xlink:href="#DejaVuSans-65"/>
       <use x="151.234375" xlink:href="#DejaVuSans-76"/>
       <use x="193.697266" xlink:href="#DejaVuSans-89"/>
      </g>
     </g>
    </g>
    <g id="xtick_3">
     <g id="line2d_3">
      <g>
       <use style="stroke:#000000;stroke-width:0.8;" x="193.125" xlink:href="#m6f0ed69a75" y="567"/>
      </g>
     </g>
     <g id="text_3">
      <!-- SPAIN -->
      <g transform="translate(184.818705 599.887842)rotate(-45)scale(0.1 -0.1)">
       <defs>
        <path d="M 53.515625 70.515625 
L 53.515625 60.890625 
Q 47.90625 63.578125 42.921875 64.890625 
Q 37.9375 66.21875 33.296875 66.21875 
Q 25.25 66.21875 20.875 63.09375 
Q 16.5 59.96875 16.5 54.203125 
Q 16.5 49.359375 19.40625 46.890625 
Q 22.3125 44.4375 30.421875 42.921875 
L 36.375 41.703125 
Q 47.40625 39.59375 52.65625 34.296875 
Q 57.90625 29 57.90625 20.125 
Q 57.90625 9.515625 50.796875 4.046875 
Q 43.703125 -1.421875 29.984375 -1.421875 
Q 24.8125 -1.421875 18.96875 -0.25 
Q 13.140625 0.921875 6.890625 3.21875 
L 6.890625 13.375 
Q 12.890625 10.015625 18.65625 8.296875 
Q 24.421875 6.59375 29.984375 6.59375 
Q 38.421875 6.59375 43.015625 9.90625 
Q 47.609375 13.234375 47.609375 19.390625 
Q 47.609375 24.75 44.3125 27.78125 
Q 41.015625 30.8125 33.5 32.328125 
L 27.484375 33.5 
Q 16.453125 35.6875 11.515625 40.375 
Q 6.59375 45.0625 6.59375 53.421875 
Q 6.59375 63.09375 13.40625 68.65625 
Q 20.21875 74.21875 32.171875 74.21875 
Q 37.3125 74.21875 42.625 73.28125 
Q 47.953125 72.359375 53.515625 70.515625 
z
" id="DejaVuSans-83"/>
        <path d="M 19.671875 64.796875 
L 19.671875 37.40625 
L 32.078125 37.40625 
Q 38.96875 37.40625 42.71875 40.96875 
Q 46.484375 44.53125 46.484375 51.125 
Q 46.484375 57.671875 42.71875 61.234375 
Q 38.96875 64.796875 32.078125 64.796875 
z
M 9.8125 72.90625 
L 32.078125 72.90625 
Q 44.34375 72.90625 50.609375 67.359375 
Q 56.890625 61.8125 56.890625 51.125 
Q 56.890625 40.328125 50.609375 34.8125 
Q 44.34375 29.296875 32.078125 29.296875 
L 19.671875 29.296875 
L 19.671875 0 
L 9.8125 0 
z
" id="DejaVuSans-80"/>
       </defs>
       <use xlink:href="#DejaVuSans-83"/>
       <use x="63.476562" xlink:href="#DejaVuSans-80"/>
       <use x="117.404297" xlink:href="#DejaVuSans-65"/>
       <use x="185.8125" xlink:href="#DejaVuSans-73"/>
       <use x="215.304688" xlink:href="#DejaVuSans-78"/>
      </g>
     </g>
    </g>
    <g id="xtick_4">
     <g id="line2d_4">
      <g>
       <use style="stroke:#000000;stroke-width:0.8;" x="216.375" xlink:href="#m6f0ed69a75" y="567"/>
      </g>
     </g>
     <g id="text_4">
      <!-- PORTUGAL -->
      <g transform="translate(199.335936 617.35338)rotate(-45)scale(0.1 -0.1)">
       <defs>
        <path d="M 44.390625 34.1875 
Q 47.5625 33.109375 50.5625 29.59375 
Q 53.5625 26.078125 56.59375 19.921875 
L 66.609375 0 
L 56 0 
L 46.6875 18.703125 
Q 43.0625 26.03125 39.671875 28.421875 
Q 36.28125 30.8125 30.421875 30.8125 
L 19.671875 30.8125 
L 19.671875 0 
L 9.8125 0 
L 9.8125 72.90625 
L 32.078125 72.90625 
Q 44.578125 72.90625 50.734375 67.671875 
Q 56.890625 62.453125 56.890625 51.90625 
Q 56.890625 45.015625 53.6875 40.46875 
Q 50.484375 35.9375 44.390625 34.1875 
z
M 19.671875 64.796875 
L 19.671875 38.921875 
L 32.078125 38.921875 
Q 39.203125 38.921875 42.84375 42.21875 
Q 46.484375 45.515625 46.484375 51.90625 
Q 46.484375 58.296875 42.84375 61.546875 
Q 39.203125 64.796875 32.078125 64.796875 
z
" id="DejaVuSans-82"/>
       </defs>
       <use xlink:href="#DejaVuSans-80"/>
       <use x="60.302734" xlink:href="#DejaVuSans-79"/>
       <use x="139.013672" xlink:href="#DejaVuSans-82"/>
       <use x="201.246094" xlink:href="#DejaVuSans-84"/>
       <use x="262.330078" xlink:href="#DejaVuSans-85"/>
       <use x="335.523438" xlink:href="#DejaVuSans-71"/>
       <use x="413.013672" xlink:href="#DejaVuSans-65"/>
       <use x="481.421875" xlink:href="#DejaVuSans-76"/>
      </g>
     </g>
    </g>
    <g id="xtick_5">
     <g id="line2d_5">
      <g>
       <use style="stroke:#000000;stroke-width:0.8;" x="239.625" xlink:href="#m6f0ed69a75" y="567"/>
      </g>
     </g>
     <g id="text_5">
      <!-- FRANCE -->
      <g transform="translate(227.461106 607.60304)rotate(-45)scale(0.1 -0.1)">
       <defs>
        <path d="M 9.8125 72.90625 
L 51.703125 72.90625 
L 51.703125 64.59375 
L 19.671875 64.59375 
L 19.671875 43.109375 
L 48.578125 43.109375 
L 48.578125 34.8125 
L 19.671875 34.8125 
L 19.671875 0 
L 9.8125 0 
z
" id="DejaVuSans-70"/>
        <path d="M 64.40625 67.28125 
L 64.40625 56.890625 
Q 59.421875 61.53125 53.78125 63.8125 
Q 48.140625 66.109375 41.796875 66.109375 
Q 29.296875 66.109375 22.65625 58.46875 
Q 16.015625 50.828125 16.015625 36.375 
Q 16.015625 21.96875 22.65625 14.328125 
Q 29.296875 6.6875 41.796875 6.6875 
Q 48.140625 6.6875 53.78125 8.984375 
Q 59.421875 11.28125 64.40625 15.921875 
L 64.40625 5.609375 
Q 59.234375 2.09375 53.4375 0.328125 
Q 47.65625 -1.421875 41.21875 -1.421875 
Q 24.65625 -1.421875 15.125 8.703125 
Q 5.609375 18.84375 5.609375 36.375 
Q 5.609375 53.953125 15.125 64.078125 
Q 24.65625 74.21875 41.21875 74.21875 
Q 47.75 74.21875 53.53125 72.484375 
Q 59.328125 70.75 64.40625 67.28125 
z
" id="DejaVuSans-67"/>
       </defs>
       <use xlink:href="#DejaVuSans-70"/>
       <use x="57.519531" xlink:href="#DejaVuSans-82"/>
       <use x="123.001953" xlink:href="#DejaVuSans-65"/>
       <use x="191.410156" xlink:href="#DejaVuSans-78"/>
       <use x="266.214844" xlink:href="#DejaVuSans-67"/>
       <use x="336.039062" xlink:href="#DejaVuSans-69"/>
      </g>
     </g>
    </g>
    <g id="xtick_6">
     <g id="line2d_6">
      <g>
       <use style="stroke:#000000;stroke-width:0.8;" x="262.875" xlink:href="#m6f0ed69a75" y="567"/>
      </g>
     </g>
     <g id="text_6">
      <!-- CROATIA -->
      <g transform="translate(249.414007 610.197238)rotate(-45)scale(0.1 -0.1)">
       <use xlink:href="#DejaVuSans-67"/>
       <use x="69.824219" xlink:href="#DejaVuSans-82"/>
       <use x="139.306641" xlink:href="#DejaVuSans-79"/>
       <use x="216.267578" xlink:href="#DejaVuSans-65"/>
       <use x="276.925781" xlink:href="#DejaVuSans-84"/>
       <use x="338.009766" xlink:href="#DejaVuSans-73"/>
       <use x="367.501953" xlink:href="#DejaVuSans-65"/>
      </g>
     </g>
    </g>
    <g id="xtick_7">
     <g id="line2d_7">
      <g>
       <use style="stroke:#000000;stroke-width:0.8;" x="286.125" xlink:href="#m6f0ed69a75" y="567"/>
      </g>
     </g>
     <g id="text_7">
      <!-- TURKEY -->
      <g transform="translate(274.160532 607.204188)rotate(-45)scale(0.1 -0.1)">
       <use xlink:href="#DejaVuSans-84"/>
       <use x="61.083984" xlink:href="#DejaVuSans-85"/>
       <use x="134.277344" xlink:href="#DejaVuSans-82"/>
       <use x="203.759766" xlink:href="#DejaVuSans-75"/>
       <use x="269.335938" xlink:href="#DejaVuSans-69"/>
       <use x="332.519531" xlink:href="#DejaVuSans-89"/>
      </g>
     </g>
    </g>
    <g id="xtick_8">
     <g id="line2d_8">
      <g>
       <use style="stroke:#000000;stroke-width:0.8;" x="309.375" xlink:href="#m6f0ed69a75" y="567"/>
      </g>
     </g>
     <g id="text_8">
      <!-- MEXICO -->
      <g transform="translate(297.324906 607.37544)rotate(-45)scale(0.1 -0.1)">
       <defs>
        <path d="M 6.296875 72.90625 
L 16.890625 72.90625 
L 35.015625 45.796875 
L 53.21875 72.90625 
L 63.8125 72.90625 
L 40.375 37.890625 
L 65.375 0 
L 54.78125 0 
L 34.28125 31 
L 13.625 0 
L 2.984375 0 
L 29 38.921875 
z
" id="DejaVuSans-88"/>
       </defs>
       <use xlink:href="#DejaVuSans-77"/>
       <use x="86.279297" xlink:href="#DejaVuSans-69"/>
       <use x="149.462891" xlink:href="#DejaVuSans-88"/>
       <use x="217.96875" xlink:href="#DejaVuSans-73"/>
       <use x="247.460938" xlink:href="#DejaVuSans-67"/>
       <use x="317.285156" xlink:href="#DejaVuSans-79"/>
      </g>
     </g>
    </g>
    <g id="xtick_9">
     <g id="line2d_9">
      <g>
       <use style="stroke:#000000;stroke-width:0.8;" x="332.625" xlink:href="#m6f0ed69a75" y="567"/>
      </g>
     </g>
     <g id="text_9">
      <!-- ISRAEL -->
      <g transform="translate(322.350959 603.823333)rotate(-45)scale(0.1 -0.1)">
       <use xlink:href="#DejaVuSans-73"/>
       <use x="29.492188" xlink:href="#DejaVuSans-83"/>
       <use x="92.96875" xlink:href="#DejaVuSans-82"/>
       <use x="158.451172" xlink:href="#DejaVuSans-65"/>
       <use x="226.859375" xlink:href="#DejaVuSans-69"/>
       <use x="290.042969" xlink:href="#DejaVuSans-76"/>
      </g>
     </g>
    </g>
    <g id="xtick_10">
     <g id="line2d_10">
      <g>
       <use style="stroke:#000000;stroke-width:0.8;" x="355.875" xlink:href="#m6f0ed69a75" y="567"/>
      </g>
     </g>
     <g id="text_10">
      <!-- GREECE -->
      <g transform="translate(343.459199 608.106854)rotate(-45)scale(0.1 -0.1)">
       <use xlink:href="#DejaVuSans-71"/>
       <use x="77.490234" xlink:href="#DejaVuSans-82"/>
       <use x="146.972656" xlink:href="#DejaVuSans-69"/>
       <use x="210.15625" xlink:href="#DejaVuSans-69"/>
       <use x="273.339844" xlink:href="#DejaVuSans-67"/>
       <use x="343.164062" xlink:href="#DejaVuSans-69"/>
      </g>
     </g>
    </g>
    <g id="xtick_11">
     <g id="line2d_11">
      <g>
       <use style="stroke:#000000;stroke-width:0.8;" x="379.125" xlink:href="#m6f0ed69a75" y="567"/>
      </g>
     </g>
     <g id="text_11">
      <!-- MALTA -->
      <g transform="translate(369.819364 601.886524)rotate(-45)scale(0.1 -0.1)">
       <use xlink:href="#DejaVuSans-77"/>
       <use x="86.279297" xlink:href="#DejaVuSans-65"/>
       <use x="154.6875" xlink:href="#DejaVuSans-76"/>
       <use x="196.650391" xlink:href="#DejaVuSans-84"/>
       <use x="249.984375" xlink:href="#DejaVuSans-65"/>
      </g>
     </g>
    </g>
    <g id="xtick_12">
     <g id="line2d_12">
      <g>
       <use style="stroke:#000000;stroke-width:0.8;" x="402.375" xlink:href="#m6f0ed69a75" y="567"/>
      </g>
     </g>
     <g id="text_12">
      <!-- THE BALKANS -->
      <g transform="translate(379.771337 628.482577)rotate(-45)scale(0.1 -0.1)">
       <defs>
        <path d="M 9.8125 72.90625 
L 19.671875 72.90625 
L 19.671875 43.015625 
L 55.515625 43.015625 
L 55.515625 72.90625 
L 65.375 72.90625 
L 65.375 0 
L 55.515625 0 
L 55.515625 34.71875 
L 19.671875 34.71875 
L 19.671875 0 
L 9.8125 0 
z
" id="DejaVuSans-72"/>
        <path d="M 19.671875 34.8125 
L 19.671875 8.109375 
L 35.5 8.109375 
Q 43.453125 8.109375 47.28125 11.40625 
Q 51.125 14.703125 51.125 21.484375 
Q 51.125 28.328125 47.28125 31.5625 
Q 43.453125 34.8125 35.5 34.8125 
z
M 19.671875 64.796875 
L 19.671875 42.828125 
L 34.28125 42.828125 
Q 41.5 42.828125 45.03125 45.53125 
Q 48.578125 48.25 48.578125 53.8125 
Q 48.578125 59.328125 45.03125 62.0625 
Q 41.5 64.796875 34.28125 64.796875 
z
M 9.8125 72.90625 
L 35.015625 72.90625 
Q 46.296875 72.90625 52.390625 68.21875 
Q 58.5 63.53125 58.5 54.890625 
Q 58.5 48.1875 55.375 44.234375 
Q 52.25 40.28125 46.1875 39.3125 
Q 53.46875 37.75 57.5 32.78125 
Q 61.53125 27.828125 61.53125 20.40625 
Q 61.53125 10.640625 54.890625 5.3125 
Q 48.25 0 35.984375 0 
L 9.8125 0 
z
" id="DejaVuSans-66"/>
       </defs>
       <use xlink:href="#DejaVuSans-84"/>
       <use x="61.083984" xlink:href="#DejaVuSans-72"/>
       <use x="136.279297" xlink:href="#DejaVuSans-69"/>
       <use x="199.462891" xlink:href="#DejaVuSans-32"/>
       <use x="231.25" xlink:href="#DejaVuSans-66"/>
       <use x="299.853516" xlink:href="#DejaVuSans-65"/>
       <use x="368.261719" xlink:href="#DejaVuSans-76"/>
       <use x="423.974609" xlink:href="#DejaVuSans-75"/>
       <use x="487.800781" xlink:href="#DejaVuSans-65"/>
       <use x="556.208984" xlink:href="#DejaVuSans-78"/>
       <use x="631.013672" xlink:href="#DejaVuSans-83"/>
      </g>
     </g>
    </g>
    <g id="xtick_13">
     <g id="line2d_13">
      <g>
       <use style="stroke:#000000;stroke-width:0.8;" x="425.625" xlink:href="#m6f0ed69a75" y="567"/>
      </g>
     </g>
     <g id="text_13">
      <!-- EGYPT -->
      <g transform="translate(416.328756 601.867741)rotate(-45)scale(0.1 -0.1)">
       <use xlink:href="#DejaVuSans-69"/>
       <use x="63.183594" xlink:href="#DejaVuSans-71"/>
       <use x="135.673828" xlink:href="#DejaVuSans-89"/>
       <use x="196.757812" xlink:href="#DejaVuSans-80"/>
       <use x="257.060547" xlink:href="#DejaVuSans-84"/>
      </g>
     </g>
    </g>
    <g id="xtick_14">
     <g id="line2d_14">
      <g>
       <use style="stroke:#000000;stroke-width:0.8;" x="448.875" xlink:href="#m6f0ed69a75" y="567"/>
      </g>
     </g>
     <g id="text_14">
      <!-- ITALY / CROATIA -->
      <g transform="translate(422.967823 635.089606)rotate(-45)scale(0.1 -0.1)">
       <defs>
        <path d="M 25.390625 72.90625 
L 33.6875 72.90625 
L 8.296875 -9.28125 
L 0 -9.28125 
z
" id="DejaVuSans-47"/>
       </defs>
       <use xlink:href="#DejaVuSans-73"/>
       <use x="29.492188" xlink:href="#DejaVuSans-84"/>
       <use x="82.826172" xlink:href="#DejaVuSans-65"/>
       <use x="151.234375" xlink:href="#DejaVuSans-76"/>
       <use x="193.697266" xlink:href="#DejaVuSans-89"/>
       <use x="254.78125" xlink:href="#DejaVuSans-32"/>
       <use x="286.568359" xlink:href="#DejaVuSans-47"/>
       <use x="320.259766" xlink:href="#DejaVuSans-32"/>
       <use x="352.046875" xlink:href="#DejaVuSans-67"/>
       <use x="421.871094" xlink:href="#DejaVuSans-82"/>
       <use x="491.353516" xlink:href="#DejaVuSans-79"/>
       <use x="568.314453" xlink:href="#DejaVuSans-65"/>
       <use x="628.972656" xlink:href="#DejaVuSans-84"/>
       <use x="690.056641" xlink:href="#DejaVuSans-73"/>
       <use x="719.548828" xlink:href="#DejaVuSans-65"/>
      </g>
     </g>
    </g>
    <g id="xtick_15">
     <g id="line2d_15">
      <g>
       <use style="stroke:#000000;stroke-width:0.8;" x="472.125" xlink:href="#m6f0ed69a75" y="567"/>
      </g>
     </g>
     <g id="text_15">
      <!-- CAPE VERDE -->
      <g transform="translate(451.633819 624.257614)rotate(-45)scale(0.1 -0.1)">
       <defs>
        <path d="M 28.609375 0 
L 0.78125 72.90625 
L 11.078125 72.90625 
L 34.1875 11.53125 
L 57.328125 72.90625 
L 67.578125 72.90625 
L 39.796875 0 
z
" id="DejaVuSans-86"/>
       </defs>
       <use xlink:href="#DejaVuSans-67"/>
       <use x="69.824219" xlink:href="#DejaVuSans-65"/>
       <use x="138.232422" xlink:href="#DejaVuSans-80"/>
       <use x="198.535156" xlink:href="#DejaVuSans-69"/>
       <use x="261.71875" xlink:href="#DejaVuSans-32"/>
       <use x="293.505859" xlink:href="#DejaVuSans-86"/>
       <use x="361.914062" xlink:href="#DejaVuSans-69"/>
       <use x="425.097656" xlink:href="#DejaVuSans-82"/>
       <use x="494.580078" xlink:href="#DejaVuSans-68"/>
       <use x="571.582031" xlink:href="#DejaVuSans-69"/>
      </g>
     </g>
    </g>
    <g id="xtick_16">
     <g id="line2d_16">
      <g>
       <use style="stroke:#000000;stroke-width:0.8;" x="495.375" xlink:href="#m6f0ed69a75" y="567"/>
      </g>
     </g>
     <g id="text_16">
      <!-- AZORES -->
      <g transform="translate(482.767507 608.490238)rotate(-45)scale(0.1 -0.1)">
       <defs>
        <path d="M 5.609375 72.90625 
L 62.890625 72.90625 
L 62.890625 65.375 
L 16.796875 8.296875 
L 64.015625 8.296875 
L 64.015625 0 
L 4.5 0 
L 4.5 7.515625 
L 50.59375 64.59375 
L 5.609375 64.59375 
z
" id="DejaVuSans-90"/>
       </defs>
       <use xlink:href="#DejaVuSans-65"/>
       <use x="68.408203" xlink:href="#DejaVuSans-90"/>
       <use x="136.914062" xlink:href="#DejaVuSans-79"/>
       <use x="215.625" xlink:href="#DejaVuSans-82"/>
       <use x="285.107422" xlink:href="#DejaVuSans-69"/>
       <use x="348.291016" xlink:href="#DejaVuSans-83"/>
      </g>
     </g>
    </g>
    <g id="xtick_17">
     <g id="line2d_17">
      <g>
       <use style="stroke:#000000;stroke-width:0.8;" x="518.625" xlink:href="#m6f0ed69a75" y="567"/>
      </g>
     </g>
     <g id="text_17">
      <!-- ENGLAND -->
      <g transform="translate(503.122236 614.28078)rotate(-45)scale(0.1 -0.1)">
       <use xlink:href="#DejaVuSans-69"/>
       <use x="63.183594" xlink:href="#DejaVuSans-78"/>
       <use x="137.988281" xlink:href="#DejaVuSans-71"/>
       <use x="215.478516" xlink:href="#DejaVuSans-76"/>
       <use x="273.441406" xlink:href="#DejaVuSans-65"/>
       <use x="341.849609" xlink:href="#DejaVuSans-78"/>
       <use x="416.654297" xlink:href="#DejaVuSans-68"/>
      </g>
     </g>
    </g>
    <g id="xtick_18">
     <g id="line2d_18">
      <g>
       <use style="stroke:#000000;stroke-width:0.8;" x="541.875" xlink:href="#m6f0ed69a75" y="567"/>
      </g>
     </g>
     <g id="text_18">
      <!-- MONTENEGRO -->
      <g transform="translate(518.095772 630.833708)rotate(-45)scale(0.1 -0.1)">
       <use xlink:href="#DejaVuSans-77"/>
       <use x="86.279297" xlink:href="#DejaVuSans-79"/>
       <use x="164.990234" xlink:href="#DejaVuSans-78"/>
       <use x="239.794922" xlink:href="#DejaVuSans-84"/>
       <use x="300.878906" xlink:href="#DejaVuSans-69"/>
       <use x="364.0625" xlink:href="#DejaVuSans-78"/>
       <use x="438.867188" xlink:href="#DejaVuSans-69"/>
       <use x="502.050781" xlink:href="#DejaVuSans-71"/>
       <use x="579.541016" xlink:href="#DejaVuSans-82"/>
       <use x="649.023438" xlink:href="#DejaVuSans-79"/>
      </g>
     </g>
    </g>
    <g id="xtick_19">
     <g id="line2d_19">
      <g>
       <use style="stroke:#000000;stroke-width:0.8;" x="565.125" xlink:href="#m6f0ed69a75" y="567"/>
      </g>
     </g>
     <g id="text_19">
      <!-- GUYANA -->
      <g transform="translate(552.38161 608.762032)rotate(-45)scale(0.1 -0.1)">
       <use xlink:href="#DejaVuSans-71"/>
       <use x="77.490234" xlink:href="#DejaVuSans-85"/>
       <use x="150.683594" xlink:href="#DejaVuSans-89"/>
       <use x="204.017578" xlink:href="#DejaVuSans-65"/>
       <use x="272.425781" xlink:href="#DejaVuSans-78"/>
       <use x="347.230469" xlink:href="#DejaVuSans-65"/>
      </g>
     </g>
    </g>
    <g id="xtick_20">
     <g id="line2d_20">
      <g>
       <use style="stroke:#000000;stroke-width:0.8;" x="588.375" xlink:href="#m6f0ed69a75" y="567"/>
      </g>
     </g>
     <g id="text_20">
      <!-- PHILIPPINES -->
      <g transform="translate(569.04944 621.926372)rotate(-45)scale(0.1 -0.1)">
       <use xlink:href="#DejaVuSans-80"/>
       <use x="60.302734" xlink:href="#DejaVuSans-72"/>
       <use x="135.498047" xlink:href="#DejaVuSans-73"/>
       <use x="164.990234" xlink:href="#DejaVuSans-76"/>
       <use x="220.703125" xlink:href="#DejaVuSans-73"/>
       <use x="250.195312" xlink:href="#DejaVuSans-80"/>
       <use x="310.498047" xlink:href="#DejaVuSans-80"/>
       <use x="370.800781" xlink:href="#DejaVuSans-73"/>
       <use x="400.292969" xlink:href="#DejaVuSans-78"/>
       <use x="475.097656" xlink:href="#DejaVuSans-69"/>
       <use x="538.28125" xlink:href="#DejaVuSans-83"/>
      </g>
     </g>
    </g>
    <g id="xtick_21">
     <g id="line2d_21">
      <g>
       <use style="stroke:#000000;stroke-width:0.8;" x="611.625" xlink:href="#m6f0ed69a75" y="567"/>
      </g>
     </g>
     <g id="text_21">
      <!-- TUNISIA -->
      <g transform="translate(599.435142 607.654968)rotate(-45)scale(0.1 -0.1)">
       <use xlink:href="#DejaVuSans-84"/>
       <use x="61.083984" xlink:href="#DejaVuSans-85"/>
       <use x="134.277344" xlink:href="#DejaVuSans-78"/>
       <use x="209.082031" xlink:href="#DejaVuSans-73"/>
       <use x="238.574219" xlink:href="#DejaVuSans-83"/>
       <use x="302.050781" xlink:href="#DejaVuSans-73"/>
       <use x="331.542969" xlink:href="#DejaVuSans-65"/>
      </g>
     </g>
    </g>
    <g id="xtick_22">
     <g id="line2d_22">
      <g>
       <use style="stroke:#000000;stroke-width:0.8;" x="634.875" xlink:href="#m6f0ed69a75" y="567"/>
      </g>
     </g>
     <g id="text_22">
      <!-- INDONESIA -->
      <g transform="translate(617.047623 618.930007)rotate(-45)scale(0.1 -0.1)">
       <use xlink:href="#DejaVuSans-73"/>
       <use x="29.492188" xlink:href="#DejaVuSans-78"/>
       <use x="104.296875" xlink:href="#DejaVuSans-68"/>
       <use x="181.298828" xlink:href="#DejaVuSans-79"/>
       <use x="260.009766" xlink:href="#DejaVuSans-78"/>
       <use x="334.814453" xlink:href="#DejaVuSans-69"/>
       <use x="397.998047" xlink:href="#DejaVuSans-83"/>
       <use x="461.474609" xlink:href="#DejaVuSans-73"/>
       <use x="490.966797" xlink:href="#DejaVuSans-65"/>
      </g>
     </g>
    </g>
    <g id="xtick_23">
     <g id="line2d_23">
      <g>
       <use style="stroke:#000000;stroke-width:0.8;" x="658.125" xlink:href="#m6f0ed69a75" y="567"/>
      </g>
     </g>
     <g id="text_23">
      <!-- REUNION ISLAND -->
      <g transform="translate(629.435247 640.654758)rotate(-45)scale(0.1 -0.1)">
       <use xlink:href="#DejaVuSans-82"/>
       <use x="69.482422" xlink:href="#DejaVuSans-69"/>
       <use x="132.666016" xlink:href="#DejaVuSans-85"/>
       <use x="205.859375" xlink:href="#DejaVuSans-78"/>
       <use x="280.664062" xlink:href="#DejaVuSans-73"/>
       <use x="310.15625" xlink:href="#DejaVuSans-79"/>
       <use x="388.867188" xlink:href="#DejaVuSans-78"/>
       <use x="463.671875" xlink:href="#DejaVuSans-32"/>
       <use x="495.458984" xlink:href="#DejaVuSans-73"/>
       <use x="524.951172" xlink:href="#DejaVuSans-83"/>
       <use x="588.427734" xlink:href="#DejaVuSans-76"/>
       <use x="646.390625" xlink:href="#DejaVuSans-65"/>
       <use x="714.798828" xlink:href="#DejaVuSans-78"/>
       <use x="789.603516" xlink:href="#DejaVuSans-68"/>
      </g>
     </g>
    </g>
    <g id="xtick_24">
     <g id="line2d_24">
      <g>
       <use style="stroke:#000000;stroke-width:0.8;" x="681.375" xlink:href="#m6f0ed69a75" y="567"/>
      </g>
     </g>
     <g id="text_24">
      <!-- AUSTRALIA -->
      <g transform="translate(663.750916 618.52342)rotate(-45)scale(0.1 -0.1)">
       <use xlink:href="#DejaVuSans-65"/>
       <use x="68.408203" xlink:href="#DejaVuSans-85"/>
       <use x="141.601562" xlink:href="#DejaVuSans-83"/>
       <use x="205.078125" xlink:href="#DejaVuSans-84"/>
       <use x="266.162109" xlink:href="#DejaVuSans-82"/>
       <use x="331.644531" xlink:href="#DejaVuSans-65"/>
       <use x="400.052734" xlink:href="#DejaVuSans-76"/>
       <use x="455.765625" xlink:href="#DejaVuSans-73"/>
       <use x="485.257812" xlink:href="#DejaVuSans-65"/>
      </g>
     </g>
    </g>
    <g id="xtick_25">
     <g id="line2d_25">
      <g>
       <use style="stroke:#000000;stroke-width:0.8;" x="704.625" xlink:href="#m6f0ed69a75" y="567"/>
      </g>
     </g>
     <g id="text_25">
      <!-- CRETE -->
      <g transform="translate(695.023263 602.478726)rotate(-45)scale(0.1 -0.1)">
       <use xlink:href="#DejaVuSans-67"/>
       <use x="69.824219" xlink:href="#DejaVuSans-82"/>
       <use x="139.306641" xlink:href="#DejaVuSans-69"/>
       <use x="202.490234" xlink:href="#DejaVuSans-84"/>
       <use x="263.574219" xlink:href="#DejaVuSans-69"/>
      </g>
     </g>
    </g>
    <g id="xtick_26">
     <g id="line2d_26">
      <g>
       <use style="stroke:#000000;stroke-width:0.8;" x="727.875" xlink:href="#m6f0ed69a75" y="567"/>
      </g>
     </g>
     <g id="text_26">
      <!-- SYRIA -->
      <g transform="translate(719.504071 600.01711)rotate(-45)scale(0.1 -0.1)">
       <use xlink:href="#DejaVuSans-83"/>
       <use x="63.476562" xlink:href="#DejaVuSans-89"/>
       <use x="124.560547" xlink:href="#DejaVuSans-82"/>
       <use x="194.042969" xlink:href="#DejaVuSans-73"/>
       <use x="223.535156" xlink:href="#DejaVuSans-65"/>
      </g>
     </g>
    </g>
    <g id="xtick_27">
     <g id="line2d_27">
      <g>
       <use style="stroke:#000000;stroke-width:0.8;" x="751.125" xlink:href="#m6f0ed69a75" y="567"/>
      </g>
     </g>
     <g id="text_27">
      <!-- SCOTLAND -->
      <g transform="translate(733.584885 618.355483)rotate(-45)scale(0.1 -0.1)">
       <use xlink:href="#DejaVuSans-83"/>
       <use x="63.476562" xlink:href="#DejaVuSans-67"/>
       <use x="133.300781" xlink:href="#DejaVuSans-79"/>
       <use x="212.011719" xlink:href="#DejaVuSans-84"/>
       <use x="273.095703" xlink:href="#DejaVuSans-76"/>
       <use x="331.058594" xlink:href="#DejaVuSans-65"/>
       <use x="399.466797" xlink:href="#DejaVuSans-78"/>
       <use x="474.271484" xlink:href="#DejaVuSans-68"/>
      </g>
     </g>
    </g>
    <g id="xtick_28">
     <g id="line2d_28">
      <g>
       <use style="stroke:#000000;stroke-width:0.8;" x="774.375" xlink:href="#m6f0ed69a75" y="567"/>
      </g>
     </g>
     <g id="text_28">
      <!-- CHINA -->
      <g transform="translate(765.092014 601.841225)rotate(-45)scale(0.1 -0.1)">
       <use xlink:href="#DejaVuSans-67"/>
       <use x="69.824219" xlink:href="#DejaVuSans-72"/>
       <use x="145.019531" xlink:href="#DejaVuSans-73"/>
       <use x="174.511719" xlink:href="#DejaVuSans-78"/>
       <use x="249.316406" xlink:href="#DejaVuSans-65"/>
      </g>
     </g>
    </g>
    <g id="xtick_29">
     <g id="line2d_29">
      <g>
       <use style="stroke:#000000;stroke-width:0.8;" x="797.625" xlink:href="#m6f0ed69a75" y="567"/>
      </g>
     </g>
     <g id="text_29">
      <!-- TOBAGO -->
      <g transform="translate(784.32863 609.867991)rotate(-45)scale(0.1 -0.1)">
       <use xlink:href="#DejaVuSans-84"/>
       <use x="61.083984" xlink:href="#DejaVuSans-79"/>
       <use x="139.794922" xlink:href="#DejaVuSans-66"/>
       <use x="208.398438" xlink:href="#DejaVuSans-65"/>
       <use x="275.056641" xlink:href="#DejaVuSans-71"/>
       <use x="352.546875" xlink:href="#DejaVuSans-79"/>
      </g>
     </g>
    </g>
    <g id="xtick_30">
     <g id="line2d_30">
      <g>
       <use style="stroke:#000000;stroke-width:0.8;" x="820.875" xlink:href="#m6f0ed69a75" y="567"/>
      </g>
     </g>
     <g id="text_30">
      <!-- ALGERIA -->
      <g transform="translate(807.546037 609.933178)rotate(-45)scale(0.1 -0.1)">
       <use xlink:href="#DejaVuSans-65"/>
       <use x="68.408203" xlink:href="#DejaVuSans-76"/>
       <use x="124.121094" xlink:href="#DejaVuSans-71"/>
       <use x="201.611328" xlink:href="#DejaVuSans-69"/>
       <use x="264.794922" xlink:href="#DejaVuSans-82"/>
       <use x="334.277344" xlink:href="#DejaVuSans-73"/>
       <use x="363.769531" xlink:href="#DejaVuSans-65"/>
      </g>
     </g>
    </g>
    <g id="xtick_31">
     <g id="line2d_31">
      <g>
       <use style="stroke:#000000;stroke-width:0.8;" x="844.125" xlink:href="#m6f0ed69a75" y="567"/>
      </g>
     </g>
     <g id="text_31">
      <!-- NORWAY -->
      <g transform="translate(830.727536 610.07018)rotate(-45)scale(0.1 -0.1)">
       <defs>
        <path d="M 3.328125 72.90625 
L 13.28125 72.90625 
L 28.609375 11.28125 
L 43.890625 72.90625 
L 54.984375 72.90625 
L 70.3125 11.28125 
L 85.59375 72.90625 
L 95.609375 72.90625 
L 77.296875 0 
L 64.890625 0 
L 49.515625 63.28125 
L 33.984375 0 
L 21.578125 0 
z
" id="DejaVuSans-87"/>
       </defs>
       <use xlink:href="#DejaVuSans-78"/>
       <use x="74.804688" xlink:href="#DejaVuSans-79"/>
       <use x="153.515625" xlink:href="#DejaVuSans-82"/>
       <use x="218.998047" xlink:href="#DejaVuSans-87"/>
       <use x="312.375" xlink:href="#DejaVuSans-65"/>
       <use x="373.033203" xlink:href="#DejaVuSans-89"/>
      </g>
     </g>
    </g>
    <g id="xtick_32">
     <g id="line2d_32">
      <g>
       <use style="stroke:#000000;stroke-width:0.8;" x="867.375" xlink:href="#m6f0ed69a75" y="567"/>
      </g>
     </g>
     <g id="text_32">
      <!-- MARTINIQUE -->
      <g transform="translate(847.16169 623.701873)rotate(-45)scale(0.1 -0.1)">
       <defs>
        <path d="M 39.40625 66.21875 
Q 28.65625 66.21875 22.328125 58.203125 
Q 16.015625 50.203125 16.015625 36.375 
Q 16.015625 22.609375 22.328125 14.59375 
Q 28.65625 6.59375 39.40625 6.59375 
Q 50.140625 6.59375 56.421875 14.59375 
Q 62.703125 22.609375 62.703125 36.375 
Q 62.703125 50.203125 56.421875 58.203125 
Q 50.140625 66.21875 39.40625 66.21875 
z
M 53.21875 1.3125 
L 66.21875 -12.890625 
L 54.296875 -12.890625 
L 43.5 -1.21875 
Q 41.890625 -1.3125 41.03125 -1.359375 
Q 40.1875 -1.421875 39.40625 -1.421875 
Q 24.03125 -1.421875 14.8125 8.859375 
Q 5.609375 19.140625 5.609375 36.375 
Q 5.609375 53.65625 14.8125 63.9375 
Q 24.03125 74.21875 39.40625 74.21875 
Q 54.734375 74.21875 63.90625 63.9375 
Q 73.09375 53.65625 73.09375 36.375 
Q 73.09375 23.6875 67.984375 14.640625 
Q 62.890625 5.609375 53.21875 1.3125 
z
" id="DejaVuSans-81"/>
       </defs>
       <use xlink:href="#DejaVuSans-77"/>
       <use x="86.279297" xlink:href="#DejaVuSans-65"/>
       <use x="154.6875" xlink:href="#DejaVuSans-82"/>
       <use x="216.919922" xlink:href="#DejaVuSans-84"/>
       <use x="278.003906" xlink:href="#DejaVuSans-73"/>
       <use x="307.496094" xlink:href="#DejaVuSans-78"/>
       <use x="382.300781" xlink:href="#DejaVuSans-73"/>
       <use x="411.792969" xlink:href="#DejaVuSans-81"/>
       <use x="490.503906" xlink:href="#DejaVuSans-85"/>
       <use x="563.697266" xlink:href="#DejaVuSans-69"/>
      </g>
     </g>
    </g>
    <g id="xtick_33">
     <g id="line2d_33">
      <g>
       <use style="stroke:#000000;stroke-width:0.8;" x="890.625" xlink:href="#m6f0ed69a75" y="567"/>
      </g>
     </g>
     <g id="text_33">
      <!-- USA -->
      <g transform="translate(885.259275 594.006702)rotate(-45)scale(0.1 -0.1)">
       <use xlink:href="#DejaVuSans-85"/>
       <use x="73.193359" xlink:href="#DejaVuSans-83"/>
       <use x="138.544922" xlink:href="#DejaVuSans-65"/>
      </g>
     </g>
    </g>
    <g id="xtick_34">
     <g id="line2d_34">
      <g>
       <use style="stroke:#000000;stroke-width:0.8;" x="913.875" xlink:href="#m6f0ed69a75" y="567"/>
      </g>
     </g>
     <g id="text_34">
      <!-- SWEDEN -->
      <g transform="translate(900.250489 610.524275)rotate(-45)scale(0.1 -0.1)">
       <use xlink:href="#DejaVuSans-83"/>
       <use x="63.476562" xlink:href="#DejaVuSans-87"/>
       <use x="162.353516" xlink:href="#DejaVuSans-69"/>
       <use x="225.537109" xlink:href="#DejaVuSans-68"/>
       <use x="302.539062" xlink:href="#DejaVuSans-69"/>
       <use x="365.722656" xlink:href="#DejaVuSans-78"/>
      </g>
     </g>
    </g>
    <g id="xtick_35">
     <g id="line2d_35">
      <g>
       <use style="stroke:#000000;stroke-width:0.8;" x="937.125" xlink:href="#m6f0ed69a75" y="567"/>
      </g>
     </g>
     <g id="text_35">
      <!-- ROATAN -->
      <g transform="translate(924.804769 607.915714)rotate(-45)scale(0.1 -0.1)">
       <use xlink:href="#DejaVuSans-82"/>
       <use x="69.482422" xlink:href="#DejaVuSans-79"/>
       <use x="146.443359" xlink:href="#DejaVuSans-65"/>
       <use x="207.101562" xlink:href="#DejaVuSans-84"/>
       <use x="260.435547" xlink:href="#DejaVuSans-65"/>
       <use x="328.84375" xlink:href="#DejaVuSans-78"/>
      </g>
     </g>
    </g>
    <g id="xtick_36">
     <g id="line2d_36">
      <g>
       <use style="stroke:#000000;stroke-width:0.8;" x="960.375" xlink:href="#m6f0ed69a75" y="567"/>
      </g>
     </g>
     <g id="text_36">
      <!-- LEBANON -->
      <g transform="translate(945.204797 613.615657)rotate(-45)scale(0.1 -0.1)">
       <use xlink:href="#DejaVuSans-76"/>
       <use x="55.712891" xlink:href="#DejaVuSans-69"/>
       <use x="118.896484" xlink:href="#DejaVuSans-66"/>
       <use x="187.5" xlink:href="#DejaVuSans-65"/>
       <use x="255.908203" xlink:href="#DejaVuSans-78"/>
       <use x="330.712891" xlink:href="#DejaVuSans-79"/>
       <use x="409.423828" xlink:href="#DejaVuSans-78"/>
      </g>
     </g>
    </g>
    <g id="text_37">
     <!-- Country -->
     <g transform="translate(533.636719 656.075991)scale(0.1 -0.1)">
      <defs>
       <path d="M 30.609375 48.390625 
Q 23.390625 48.390625 19.1875 42.75 
Q 14.984375 37.109375 14.984375 27.296875 
Q 14.984375 17.484375 19.15625 11.84375 
Q 23.34375 6.203125 30.609375 6.203125 
Q 37.796875 6.203125 41.984375 11.859375 
Q 46.1875 17.53125 46.1875 27.296875 
Q 46.1875 37.015625 41.984375 42.703125 
Q 37.796875 48.390625 30.609375 48.390625 
z
M 30.609375 56 
Q 42.328125 56 49.015625 48.375 
Q 55.71875 40.765625 55.71875 27.296875 
Q 55.71875 13.875 49.015625 6.21875 
Q 42.328125 -1.421875 30.609375 -1.421875 
Q 18.84375 -1.421875 12.171875 6.21875 
Q 5.515625 13.875 5.515625 27.296875 
Q 5.515625 40.765625 12.171875 48.375 
Q 18.84375 56 30.609375 56 
z
" id="DejaVuSans-111"/>
       <path d="M 8.5 21.578125 
L 8.5 54.6875 
L 17.484375 54.6875 
L 17.484375 21.921875 
Q 17.484375 14.15625 20.5 10.265625 
Q 23.53125 6.390625 29.59375 6.390625 
Q 36.859375 6.390625 41.078125 11.03125 
Q 45.3125 15.671875 45.3125 23.6875 
L 45.3125 54.6875 
L 54.296875 54.6875 
L 54.296875 0 
L 45.3125 0 
L 45.3125 8.40625 
Q 42.046875 3.421875 37.71875 1 
Q 33.40625 -1.421875 27.6875 -1.421875 
Q 18.265625 -1.421875 13.375 4.4375 
Q 8.5 10.296875 8.5 21.578125 
z
M 31.109375 56 
z
" id="DejaVuSans-117"/>
       <path d="M 54.890625 33.015625 
L 54.890625 0 
L 45.90625 0 
L 45.90625 32.71875 
Q 45.90625 40.484375 42.875 44.328125 
Q 39.84375 48.1875 33.796875 48.1875 
Q 26.515625 48.1875 22.3125 43.546875 
Q 18.109375 38.921875 18.109375 30.90625 
L 18.109375 0 
L 9.078125 0 
L 9.078125 54.6875 
L 18.109375 54.6875 
L 18.109375 46.1875 
Q 21.34375 51.125 25.703125 53.5625 
Q 30.078125 56 35.796875 56 
Q 45.21875 56 50.046875 50.171875 
Q 54.890625 44.34375 54.890625 33.015625 
z
" id="DejaVuSans-110"/>
       <path d="M 18.3125 70.21875 
L 18.3125 54.6875 
L 36.8125 54.6875 
L 36.8125 47.703125 
L 18.3125 47.703125 
L 18.3125 18.015625 
Q 18.3125 11.328125 20.140625 9.421875 
Q 21.96875 7.515625 27.59375 7.515625 
L 36.8125 7.515625 
L 36.8125 0 
L 27.59375 0 
Q 17.1875 0 13.234375 3.875 
Q 9.28125 7.765625 9.28125 18.015625 
L 9.28125 47.703125 
L 2.6875 47.703125 
L 2.6875 54.6875 
L 9.28125 54.6875 
L 9.28125 70.21875 
z
" id="DejaVuSans-116"/>
       <path d="M 41.109375 46.296875 
Q 39.59375 47.171875 37.8125 47.578125 
Q 36.03125 48 33.890625 48 
Q 26.265625 48 22.1875 43.046875 
Q 18.109375 38.09375 18.109375 28.8125 
L 18.109375 0 
L 9.078125 0 
L 9.078125 54.6875 
L 18.109375 54.6875 
L 18.109375 46.1875 
Q 20.953125 51.171875 25.484375 53.578125 
Q 30.03125 56 36.53125 56 
Q 37.453125 56 38.578125 55.875 
Q 39.703125 55.765625 41.0625 55.515625 
z
" id="DejaVuSans-114"/>
       <path d="M 32.171875 -5.078125 
Q 28.375 -14.84375 24.75 -17.8125 
Q 21.140625 -20.796875 15.09375 -20.796875 
L 7.90625 -20.796875 
L 7.90625 -13.28125 
L 13.1875 -13.28125 
Q 16.890625 -13.28125 18.9375 -11.515625 
Q 21 -9.765625 23.484375 -3.21875 
L 25.09375 0.875 
L 2.984375 54.6875 
L 12.5 54.6875 
L 29.59375 11.921875 
L 46.6875 54.6875 
L 56.203125 54.6875 
z
" id="DejaVuSans-121"/>
      </defs>
      <use xlink:href="#DejaVuSans-67"/>
      <use x="69.824219" xlink:href="#DejaVuSans-111"/>
      <use x="131.005859" xlink:href="#DejaVuSans-117"/>
      <use x="194.384766" xlink:href="#DejaVuSans-110"/>
      <use x="257.763672" xlink:href="#DejaVuSans-116"/>
      <use x="296.972656" xlink:href="#DejaVuSans-114"/>
      <use x="338.085938" xlink:href="#DejaVuSans-121"/>
     </g>
    </g>
   </g>
   <g id="matplotlib.axis_2">
    <g id="ytick_1">
     <g id="line2d_37">
      <defs>
       <path d="M 0 0 
L -3.5 0 
" id="m923abe12c5" style="stroke:#000000;stroke-width:0.8;"/>
      </defs>
      <g>
       <use style="stroke:#000000;stroke-width:0.8;" x="135" xlink:href="#m923abe12c5" y="567"/>
      </g>
     </g>
     <g id="text_38">
      <!-- 0 -->
      <g transform="translate(121.6375 570.799219)scale(0.1 -0.1)">
       <defs>
        <path d="M 31.78125 66.40625 
Q 24.171875 66.40625 20.328125 58.90625 
Q 16.5 51.421875 16.5 36.375 
Q 16.5 21.390625 20.328125 13.890625 
Q 24.171875 6.390625 31.78125 6.390625 
Q 39.453125 6.390625 43.28125 13.890625 
Q 47.125 21.390625 47.125 36.375 
Q 47.125 51.421875 43.28125 58.90625 
Q 39.453125 66.40625 31.78125 66.40625 
z
M 31.78125 74.21875 
Q 44.046875 74.21875 50.515625 64.515625 
Q 56.984375 54.828125 56.984375 36.375 
Q 56.984375 17.96875 50.515625 8.265625 
Q 44.046875 -1.421875 31.78125 -1.421875 
Q 19.53125 -1.421875 13.0625 8.265625 
Q 6.59375 17.96875 6.59375 36.375 
Q 6.59375 54.828125 13.0625 64.515625 
Q 19.53125 74.21875 31.78125 74.21875 
z
" id="DejaVuSans-48"/>
       </defs>
       <use xlink:href="#DejaVuSans-48"/>
      </g>
     </g>
    </g>
    <g id="ytick_2">
     <g id="line2d_38">
      <g>
       <use style="stroke:#000000;stroke-width:0.8;" x="135" xlink:href="#m923abe12c5" y="500.436735"/>
      </g>
     </g>
     <g id="text_39">
      <!-- 5 -->
      <g transform="translate(121.6375 504.235953)scale(0.1 -0.1)">
       <defs>
        <path d="M 10.796875 72.90625 
L 49.515625 72.90625 
L 49.515625 64.59375 
L 19.828125 64.59375 
L 19.828125 46.734375 
Q 21.96875 47.46875 24.109375 47.828125 
Q 26.265625 48.1875 28.421875 48.1875 
Q 40.625 48.1875 47.75 41.5 
Q 54.890625 34.8125 54.890625 23.390625 
Q 54.890625 11.625 47.5625 5.09375 
Q 40.234375 -1.421875 26.90625 -1.421875 
Q 22.3125 -1.421875 17.546875 -0.640625 
Q 12.796875 0.140625 7.71875 1.703125 
L 7.71875 11.625 
Q 12.109375 9.234375 16.796875 8.0625 
Q 21.484375 6.890625 26.703125 6.890625 
Q 35.15625 6.890625 40.078125 11.328125 
Q 45.015625 15.765625 45.015625 23.390625 
Q 45.015625 31 40.078125 35.4375 
Q 35.15625 39.890625 26.703125 39.890625 
Q 22.75 39.890625 18.8125 39.015625 
Q 14.890625 38.140625 10.796875 36.28125 
z
" id="DejaVuSans-53"/>
       </defs>
       <use xlink:href="#DejaVuSans-53"/>
      </g>
     </g>
    </g>
    <g id="ytick_3">
     <g id="line2d_39">
      <g>
       <use style="stroke:#000000;stroke-width:0.8;" x="135" xlink:href="#m923abe12c5" y="433.873469"/>
      </g>
     </g>
     <g id="text_40">
      <!-- 10 -->
      <g transform="translate(115.275 437.672688)scale(0.1 -0.1)">
       <defs>
        <path d="M 12.40625 8.296875 
L 28.515625 8.296875 
L 28.515625 63.921875 
L 10.984375 60.40625 
L 10.984375 69.390625 
L 28.421875 72.90625 
L 38.28125 72.90625 
L 38.28125 8.296875 
L 54.390625 8.296875 
L 54.390625 0 
L 12.40625 0 
z
" id="DejaVuSans-49"/>
       </defs>
       <use xlink:href="#DejaVuSans-49"/>
       <use x="63.623047" xlink:href="#DejaVuSans-48"/>
      </g>
     </g>
    </g>
    <g id="ytick_4">
     <g id="line2d_40">
      <g>
       <use style="stroke:#000000;stroke-width:0.8;" x="135" xlink:href="#m923abe12c5" y="367.310204"/>
      </g>
     </g>
     <g id="text_41">
      <!-- 15 -->
      <g transform="translate(115.275 371.109423)scale(0.1 -0.1)">
       <use xlink:href="#DejaVuSans-49"/>
       <use x="63.623047" xlink:href="#DejaVuSans-53"/>
      </g>
     </g>
    </g>
    <g id="ytick_5">
     <g id="line2d_41">
      <g>
       <use style="stroke:#000000;stroke-width:0.8;" x="135" xlink:href="#m923abe12c5" y="300.746939"/>
      </g>
     </g>
     <g id="text_42">
      <!-- 20 -->
      <g transform="translate(115.275 304.546158)scale(0.1 -0.1)">
       <defs>
        <path d="M 19.1875 8.296875 
L 53.609375 8.296875 
L 53.609375 0 
L 7.328125 0 
L 7.328125 8.296875 
Q 12.9375 14.109375 22.625 23.890625 
Q 32.328125 33.6875 34.8125 36.53125 
Q 39.546875 41.84375 41.421875 45.53125 
Q 43.3125 49.21875 43.3125 52.78125 
Q 43.3125 58.59375 39.234375 62.25 
Q 35.15625 65.921875 28.609375 65.921875 
Q 23.96875 65.921875 18.8125 64.3125 
Q 13.671875 62.703125 7.8125 59.421875 
L 7.8125 69.390625 
Q 13.765625 71.78125 18.9375 73 
Q 24.125 74.21875 28.421875 74.21875 
Q 39.75 74.21875 46.484375 68.546875 
Q 53.21875 62.890625 53.21875 53.421875 
Q 53.21875 48.921875 51.53125 44.890625 
Q 49.859375 40.875 45.40625 35.40625 
Q 44.1875 33.984375 37.640625 27.21875 
Q 31.109375 20.453125 19.1875 8.296875 
z
" id="DejaVuSans-50"/>
       </defs>
       <use xlink:href="#DejaVuSans-50"/>
       <use x="63.623047" xlink:href="#DejaVuSans-48"/>
      </g>
     </g>
    </g>
    <g id="ytick_6">
     <g id="line2d_42">
      <g>
       <use style="stroke:#000000;stroke-width:0.8;" x="135" xlink:href="#m923abe12c5" y="234.183673"/>
      </g>
     </g>
     <g id="text_43">
      <!-- 25 -->
      <g transform="translate(115.275 237.982892)scale(0.1 -0.1)">
       <use xlink:href="#DejaVuSans-50"/>
       <use x="63.623047" xlink:href="#DejaVuSans-53"/>
      </g>
     </g>
    </g>
    <g id="ytick_7">
     <g id="line2d_43">
      <g>
       <use style="stroke:#000000;stroke-width:0.8;" x="135" xlink:href="#m923abe12c5" y="167.620408"/>
      </g>
     </g>
     <g id="text_44">
      <!-- 30 -->
      <g transform="translate(115.275 171.419627)scale(0.1 -0.1)">
       <defs>
        <path d="M 40.578125 39.3125 
Q 47.65625 37.796875 51.625 33 
Q 55.609375 28.21875 55.609375 21.1875 
Q 55.609375 10.40625 48.1875 4.484375 
Q 40.765625 -1.421875 27.09375 -1.421875 
Q 22.515625 -1.421875 17.65625 -0.515625 
Q 12.796875 0.390625 7.625 2.203125 
L 7.625 11.71875 
Q 11.71875 9.328125 16.59375 8.109375 
Q 21.484375 6.890625 26.8125 6.890625 
Q 36.078125 6.890625 40.9375 10.546875 
Q 45.796875 14.203125 45.796875 21.1875 
Q 45.796875 27.640625 41.28125 31.265625 
Q 36.765625 34.90625 28.71875 34.90625 
L 20.21875 34.90625 
L 20.21875 43.015625 
L 29.109375 43.015625 
Q 36.375 43.015625 40.234375 45.921875 
Q 44.09375 48.828125 44.09375 54.296875 
Q 44.09375 59.90625 40.109375 62.90625 
Q 36.140625 65.921875 28.71875 65.921875 
Q 24.65625 65.921875 20.015625 65.03125 
Q 15.375 64.15625 9.8125 62.3125 
L 9.8125 71.09375 
Q 15.4375 72.65625 20.34375 73.4375 
Q 25.25 74.21875 29.59375 74.21875 
Q 40.828125 74.21875 47.359375 69.109375 
Q 53.90625 64.015625 53.90625 55.328125 
Q 53.90625 49.265625 50.4375 45.09375 
Q 46.96875 40.921875 40.578125 39.3125 
z
" id="DejaVuSans-51"/>
       </defs>
       <use xlink:href="#DejaVuSans-51"/>
       <use x="63.623047" xlink:href="#DejaVuSans-48"/>
      </g>
     </g>
    </g>
    <g id="ytick_8">
     <g id="line2d_44">
      <g>
       <use style="stroke:#000000;stroke-width:0.8;" x="135" xlink:href="#m923abe12c5" y="101.057143"/>
      </g>
     </g>
     <g id="text_45">
      <!-- 35 -->
      <g transform="translate(115.275 104.856362)scale(0.1 -0.1)">
       <use xlink:href="#DejaVuSans-51"/>
       <use x="63.623047" xlink:href="#DejaVuSans-53"/>
      </g>
     </g>
    </g>
    <g id="text_46">
     <!-- count -->
     <g transform="translate(109.195312 336.48625)rotate(-90)scale(0.1 -0.1)">
      <defs>
       <path d="M 48.78125 52.59375 
L 48.78125 44.1875 
Q 44.96875 46.296875 41.140625 47.34375 
Q 37.3125 48.390625 33.40625 48.390625 
Q 24.65625 48.390625 19.8125 42.84375 
Q 14.984375 37.3125 14.984375 27.296875 
Q 14.984375 17.28125 19.8125 11.734375 
Q 24.65625 6.203125 33.40625 6.203125 
Q 37.3125 6.203125 41.140625 7.25 
Q 44.96875 8.296875 48.78125 10.40625 
L 48.78125 2.09375 
Q 45.015625 0.34375 40.984375 -0.53125 
Q 36.96875 -1.421875 32.421875 -1.421875 
Q 20.0625 -1.421875 12.78125 6.34375 
Q 5.515625 14.109375 5.515625 27.296875 
Q 5.515625 40.671875 12.859375 48.328125 
Q 20.21875 56 33.015625 56 
Q 37.15625 56 41.109375 55.140625 
Q 45.0625 54.296875 48.78125 52.59375 
z
" id="DejaVuSans-99"/>
      </defs>
      <use xlink:href="#DejaVuSans-99"/>
      <use x="54.980469" xlink:href="#DejaVuSans-111"/>
      <use x="116.162109" xlink:href="#DejaVuSans-117"/>
      <use x="179.541016" xlink:href="#DejaVuSans-110"/>
      <use x="242.919922" xlink:href="#DejaVuSans-116"/>
     </g>
    </g>
   </g>
   <g id="patch_39">
    <path d="M 135 567 
L 135 77.76 
" style="fill:none;stroke:#000000;stroke-linecap:square;stroke-linejoin:miter;stroke-width:0.8;"/>
   </g>
   <g id="patch_40">
    <path d="M 972 567 
L 972 77.76 
" style="fill:none;stroke:#000000;stroke-linecap:square;stroke-linejoin:miter;stroke-width:0.8;"/>
   </g>
   <g id="patch_41">
    <path d="M 135 567 
L 972 567 
" style="fill:none;stroke:#000000;stroke-linecap:square;stroke-linejoin:miter;stroke-width:0.8;"/>
   </g>
   <g id="patch_42">
    <path d="M 135 77.76 
L 972 77.76 
" style="fill:none;stroke:#000000;stroke-linecap:square;stroke-linejoin:miter;stroke-width:0.8;"/>
   </g>
  </g>
 </g>
 <defs>
  <clipPath id="p8cabea3c1e">
   <rect height="489.24" width="837" x="135" y="77.76"/>
  </clipPath>
 </defs>
</svg>
